<svg xmlns="http://www.w3.org/2000/svg" height="48" viewBox="0 -960 960 960" width="48"><path d="M353.767-315.001q-39.767 0-67.343-27.733-27.577-27.733-27.577-67.5 0-39.766 27.733-67.343 27.732-27.577 67.499-27.577 39.767 0 67.344 27.733Q449-449.688 449-409.921q0 39.766-27.733 67.343-27.733 27.577-67.5 27.577Zm-159.073 230q-28.254 0-49.473-21.22-21.22-21.219-21.22-49.473v-585.227q0-28.254 21.22-49.473 21.219-21.22 49.473-21.22h57.846v-68h63.384v68h329.691v-68h62.229v68h57.462q28.254 0 49.473 21.22 21.22 21.219 21.22 49.473v585.227q0 28.254-21.22 49.473-21.219 21.22-49.473 21.22H194.694Zm0-58.384h570.612q4.616 0 8.463-3.846 3.846-3.847 3.846-8.463v-409.305h-595.23v409.305q0 4.616 3.846 8.463 3.847 3.846 8.463 3.846Zm-12.309-479.997h595.23v-117.539q0-4.616-3.846-8.463-3.847-3.846-8.463-3.846H194.694q-4.616 0-8.463 3.846-3.846 3.847-3.846 8.463v117.539Zm0 0V-753.23v129.848Z"/></svg>