<svg xmlns="http://www.w3.org/2000/svg" height="48" viewBox="0 -960 960 960" width="48"><path d="M307.653-396.846q-15.883 0-27.037-11.539-11.154-11.54-11.154-27.039 0-15.883 11.347-27.037t27.038-11.154q15.692 0 27.038 11.347 11.346 11.346 11.346 27.038 0 15.691-11.539 27.037-11.539 11.347-27.039 11.347Zm174.385 0q-15.499 0-26.845-11.539-11.347-11.54-11.347-27.039 0-15.883 11.539-27.037 11.54-11.154 27.039-11.154 15.499 0 26.845 11.347 11.346 11.346 11.346 27.23 0 15.499-11.539 26.845-11.539 11.347-27.038 11.347Zm169.307 0q-15.499 0-26.845-11.539-11.346-11.54-11.346-27.039 0-15.883 11.539-27.037t27.038-11.154q15.499 0 26.845 11.347 11.346 11.346 11.346 27.23 0 15.499-11.539 26.845-11.539 11.347-27.038 11.347ZM194.694-85.001q-28.254 0-49.473-21.22-21.22-21.219-21.22-49.473v-585.227q0-28.254 21.22-49.473 21.219-21.22 49.473-21.22h57.846v-68h63.384v68h329.691v-68h62.229v68h57.462q28.254 0 49.473 21.22 21.22 21.219 21.22 49.473v585.227q0 28.254-21.22 49.473-21.219 21.22-49.473 21.22H194.694Zm0-58.384h570.612q4.616 0 8.463-3.846 3.846-3.847 3.846-8.463v-409.305h-595.23v409.305q0 4.616 3.846 8.463 3.847 3.846 8.463 3.846Zm-12.309-479.997h595.23v-117.539q0-4.616-3.846-8.463-3.847-3.846-8.463-3.846H194.694q-4.616 0-8.463 3.846-3.846 3.847-3.846 8.463v117.539Zm0 0V-753.23v129.848Z"/></svg>