<svg xmlns="http://www.w3.org/2000/svg" height="48" viewBox="0 -960 960 960" width="48"><path d="M434.539-232.232 299.232-366.539l40.614-40.614 94.693 94.077 183.153-183.539 39.999 41.23-223.152 223.153ZM194.694-85.002q-28.254 0-49.473-21.219-21.22-21.219-21.22-49.473v-585.227q0-28.254 21.22-49.473 21.219-21.22 49.473-21.22h57.846v-68h63.384v68h329.691v-68h62.229v68h57.462q28.254 0 49.473 21.22 21.22 21.219 21.22 49.473v585.227q0 28.254-21.22 49.473-21.219 21.22-49.473 21.22H194.694Zm0-58.383h570.612q4.616 0 8.463-3.846 3.846-3.847 3.846-8.463v-409.305h-595.23v409.305q0 4.616 3.846 8.463 3.847 3.846 8.463 3.846Zm-12.309-479.997h595.23v-117.539q0-4.616-3.846-8.463-3.847-3.846-8.463-3.846H194.694q-4.616 0-8.463 3.846-3.846 3.847-3.846 8.463v117.539Zm0 0V-753.23v129.848Z"/></svg>