<svg xmlns="http://www.w3.org/2000/svg" height="48" viewBox="0 -960 960 960" width="48"><path d="M451.77-195.616h53.845v-51.077q57.461-6.307 92.769-35.957 35.308-29.649 35.308-84.117 0-49.272-27.923-81.098-27.923-31.827-99.147-60.058-60.392-24.384-84.815-42.477-24.423-18.093-24.423-49.956 0-29.721 22.759-48.644T482-667.923q31.471 0 52.235 14.115Q555-639.693 569.385-613l47.614-21.615q-17-34.923-44.73-55.385-27.731-20.461-64.654-23.748v-50.021H453.77v50.077q-51.77 8-80.808 38.881-29.038 30.881-29.038 74.504 0 48.692 29.538 77.653 29.538 28.961 91.231 52.961 66.615 27.231 91.269 48.408 24.654 21.177 24.654 54.439 0 34.937-27.693 53.853-27.692 18.916-66.744 18.916-37.282 0-67.153-21.73-29.872-21.731-43.18-59.962l-49.845 17.308q19.615 45.922 50.538 71.922t75.231 37.195v53.728Zm27.772 111.615q-81.336 0-153.329-31.482-71.994-31.481-125.621-85.109-53.628-53.627-85.109-125.752Q84.001-398.468 84.001-480q0-82.041 31.541-154.264 31.54-72.223 85.454-126.123 53.915-53.899 125.678-84.755 71.763-30.857 152.883-30.857 82.098 0 154.627 30.857 72.529 30.856 126.21 84.769 53.682 53.912 84.643 126.3 30.962 72.387 30.962 154.615 0 81.612-30.857 153.104-30.856 71.492-84.755 125.382-53.9 53.89-126.269 85.43-72.37 31.54-154.576 31.54Zm.458-58.384q140.205 0 238.91-99.013Q817.615-340.411 817.615-480q0-140.205-98.705-238.91-98.705-98.705-238.91-98.705-139.589 0-238.602 98.705T142.385-480q0 139.589 99.013 238.602T480-142.385ZM480-480Z"/></svg>