<svg xmlns="http://www.w3.org/2000/svg" height="48" viewBox="0 -960 960 960" width="48"><path d="M142.385-280.231v84.537q0 4.616 3.846 8.463 3.847 3.846 8.463 3.846h650.612q4.616 0 8.463-3.846 3.846-3.847 3.846-8.463v-84.537h-675.23Zm12.309-434.998h113.693q-2.5-9-5.327-20.539-2.827-11.538-2.827-22.7 0-44.989 31.911-76.875 31.911-31.885 76.795-31.885 28.036 0 52.583 14.571 24.547 14.571 39.345 37.582l18.72 27.847 18.721-27.847q15.692-22.769 39.51-37.461 23.819-14.692 51.849-14.692 46.165 0 77.863 31.683 31.699 31.682 31.699 77.6 0 8.964-2.077 19.609-2.077 10.645-5.462 23.107h113.616q28.254 0 49.473 21.219 21.22 21.219 21.22 49.473v448.843q0 28.254-21.22 49.473-21.219 21.22-49.473 21.22H154.694q-28.254 0-49.473-21.22-21.22-21.219-21.22-49.473v-448.843q0-28.254 21.22-49.473 21.219-21.219 49.473-21.219Zm-12.309 329.46h675.23v-258.768q0-4.616-3.846-8.462-3.847-3.847-8.463-3.847H567.999l94.076 132.769-46.076 34.153-136.768-188.998-137.768 188.998-46.077-34.153 94.462-132.769H154.694q-4.616 0-8.463 3.847-3.846 3.846-3.846 8.462v258.768Zm226.722-321.999q20.084 0 35.335-14.491 15.251-14.491 15.251-35.5 0-21.008-15.204-36.047-15.203-15.038-35.287-15.038t-35.335 15.203q-15.251 15.204-15.251 35.288 0 21.508 15.204 36.047 15.204 14.538 35.287 14.538Zm220.084 0q21.527 0 36.591-14.491 15.063-14.491 15.063-35.5 0-21.008-15.276-36.047-15.276-15.038-35.878-15.038-20.692 0-35.307 15.203-14.615 15.204-14.615 35.288 0 21.508 14.615 36.047 14.615 14.538 34.807 14.538Z"/></svg>