<svg xmlns="http://www.w3.org/2000/svg" height="48" viewBox="0 -960 960 960" width="48"><path d="M154.694-124.001q-28.254 0-49.473-21.22-21.22-21.219-21.22-49.473v-443.612q0-28.254 21.22-49.473 21.219-21.22 49.473-21.22h171.307v-82.306q0-28.254 21.22-49.473 21.219-21.219 49.473-21.219h166.612q28.254 0 49.473 21.219 21.22 21.219 21.22 49.473v82.306h171.307q28.254 0 49.473 21.22 21.22 21.219 21.22 49.473v443.612q0 28.254-21.22 49.473-21.219 21.22-49.473 21.22H154.694Zm0-58.384h650.612q4.616 0 8.463-3.846 3.846-3.847 3.846-8.463v-443.612q0-4.616-3.846-8.463-3.847-3.846-8.463-3.846H154.694q-4.616 0-8.463 3.846-3.846 3.847-3.846 8.463v443.612q0 4.616 3.846 8.463 3.847 3.846 8.463 3.846Zm229.691-526.614h191.23v-82.306q0-4.616-3.846-8.462-3.847-3.847-8.463-3.847H396.694q-4.616 0-8.463 3.847-3.846 3.846-3.846 8.462v82.306Zm-242 526.614V-650.615-182.385Z"/></svg>