<svg xmlns="http://www.w3.org/2000/svg" height="48" viewBox="0 -960 960 960" width="48"><path d="M168.001-134.001v-391.461l-73.615 56-34.153-46.076L480-835.998l420.767 320.075-35.153 46.461-73.615-57v392.461H168.001Zm58.384-58.384h507.23v-378.538L480-763.076 226.385-570.244v377.859Zm0 0h507.23-507.23ZM322.5-361.616q-15.192 0-26.538-11.539t-11.346-27.038q0-15.499 11.483-26.845 11.484-11.346 26.901-11.346 14.692 0 26.538 11.539t11.846 27.038q0 15.499-11.846 26.845-11.846 11.346-27.038 11.346Zm157 0q-15.192 0-26.538-11.539t-11.346-27.038q0-15.499 11.483-26.845 11.484-11.346 26.901-11.346 14.692 0 26.538 11.539t11.846 27.038q0 15.499-11.846 26.845-11.846 11.346-27.038 11.346Zm157 0q-15.192 0-26.538-11.539t-11.346-27.038q0-15.499 11.483-26.845 11.484-11.346 26.901-11.346 14.692 0 26.538 11.539t11.846 27.038q0 15.499-11.846 26.845-11.846 11.346-27.038 11.346Z"/></svg>