<?xml version="1.0" encoding="UTF-8" standalone="no"?>
<svg
   height="48"
   viewBox="0 -960 960 960"
   width="48"
   version="1.1"
   id="svg1"
   sodipodi:docname="calendar-today.svg"
   inkscape:version="1.3 (1:1.3+202307231459+0e150ed6c4)"
   xmlns:inkscape="http://www.inkscape.org/namespaces/inkscape"
   xmlns:sodipodi="http://sodipodi.sourceforge.net/DTD/sodipodi-0.dtd"
   xmlns="http://www.w3.org/2000/svg"
   xmlns:svg="http://www.w3.org/2000/svg">
  <defs
     id="defs1" />
  <sodipodi:namedview
     id="namedview1"
     pagecolor="#ffffff"
     bordercolor="#000000"
     borderopacity="0.25"
     inkscape:showpageshadow="2"
     inkscape:pageopacity="0.0"
     inkscape:pagecheckerboard="0"
     inkscape:deskcolor="#d1d1d1"
     inkscape:zoom="9.9166667"
     inkscape:cx="23.94958"
     inkscape:cy="24"
     inkscape:window-width="1366"
     inkscape:window-height="673"
     inkscape:window-x="0"
     inkscape:window-y="0"
     inkscape:window-maximized="1"
     inkscape:current-layer="svg1" />
  <path
     d="M353.767-315.001q-39.767 0-67.343-27.733-27.577-27.733-27.577-67.5 0-39.766 27.733-67.343 27.732-27.577 67.499-27.577 39.767 0 67.344 27.733Q449-449.688 449-409.921q0 39.766-27.733 67.343-27.733 27.577-67.5 27.577Zm-159.073 230q-28.254 0-49.473-21.22-21.22-21.219-21.22-49.473v-585.227q0-28.254 21.22-49.473 21.219-21.22 49.473-21.22h57.846v-68h63.384v68h329.691v-68h62.229v68h57.462q28.254 0 49.473 21.22 21.22 21.219 21.22 49.473v585.227q0 28.254-21.22 49.473-21.219 21.22-49.473 21.22H194.694Zm0-58.384h570.612q4.616 0 8.463-3.846 3.846-3.847 3.846-8.463v-409.305h-595.23v409.305q0 4.616 3.846 8.463 3.847 3.846 8.463 3.846Zm-12.309-479.997h595.23v-117.539q0-4.616-3.846-8.463-3.847-3.846-8.463-3.846H194.694q-4.616 0-8.463 3.846-3.846 3.847-3.846 8.463v117.539Zm0 0V-753.23v129.848Z"
     id="path1"
     style="fill:#2d2d2d;fill-opacity:1" />
</svg>
