<?xml version="1.0" encoding="UTF-8" standalone="no"?>
<svg
   height="48"
   viewBox="0 -960 960 960"
   width="48"
   version="1.1"
   id="svg4"
   sodipodi:docname="edit.svg"
   inkscape:version="1.3 (1:1.3+202307231459+0e150ed6c4)"
   xmlns:inkscape="http://www.inkscape.org/namespaces/inkscape"
   xmlns:sodipodi="http://sodipodi.sourceforge.net/DTD/sodipodi-0.dtd"
   xmlns="http://www.w3.org/2000/svg"
   xmlns:svg="http://www.w3.org/2000/svg">
  <defs
     id="defs8" />
  <sodipodi:namedview
     id="namedview6"
     pagecolor="#ffffff"
     bordercolor="#000000"
     borderopacity="0.25"
     inkscape:showpageshadow="2"
     inkscape:pageopacity="0.0"
     inkscape:pagecheckerboard="0"
     inkscape:deskcolor="#d1d1d1"
     showgrid="false"
     inkscape:zoom="10.270833"
     inkscape:cx="23.902638"
     inkscape:cy="31.837729"
     inkscape:window-width="1366"
     inkscape:window-height="673"
     inkscape:window-x="0"
     inkscape:window-y="0"
     inkscape:window-maximized="1"
     inkscape:current-layer="svg4" />
  <path
     d="m 161.14801,-75.947328 q -28.254,0 -49.473,-21.219 -21.220001,-21.219002 -21.220001,-49.473002 v -570.612 q 0,-28.254 21.220001,-49.473 21.219,-21.22 49.473,-21.22 h 386.536 l -58.384,58.384 h -328.152 q -4.616,0 -8.463,3.846 -3.846,3.847 -3.846,8.463 v 570.612 q 0,4.616 3.846,8.463 3.847,3.846 8.463,3.846 h 570.612 q 4.616,0 8.463,-3.846 3.846,-3.847 3.846,-8.463 v -330.383 l 58.384,-58.384 v 388.767 q 0,28.254 -21.22,49.473002 -21.219,21.221 -49.473,21.221 h -570.612 z m 285.306,-355.998002 z m 184.385,-335.306 41.615,41.999 -273.615,271.615 v 69.307 h 68.307 l 275,-273.23 39.614,40.23 -290.384,291.384 h -150.921 v -150.921 z m 151.082,149.921 -151.082,-149.921 90.538,-91.538 q 19.879,-20.231 49.212,-19.539 29.333,0.693 51.326,20.923 l 50.383,50.614 q 20.616,22.667 20.616,51.152 0,28.484 -21.616,49.155 z"
     id="path2"
     style="fill:#2d2d2d;fill-opacity:1" />
</svg>
