<?xml version="1.0" encoding="UTF-8" standalone="no"?>
<svg
   height="48"
   viewBox="0 -960 960 960"
   width="48"
   version="1.1"
   id="svg1"
   sodipodi:docname="category-other.svg"
   inkscape:version="1.3 (1:1.3+202307231459+0e150ed6c4)"
   xmlns:inkscape="http://www.inkscape.org/namespaces/inkscape"
   xmlns:sodipodi="http://sodipodi.sourceforge.net/DTD/sodipodi-0.dtd"
   xmlns="http://www.w3.org/2000/svg"
   xmlns:svg="http://www.w3.org/2000/svg">
  <defs
     id="defs1" />
  <sodipodi:namedview
     id="namedview1"
     pagecolor="#ffffff"
     bordercolor="#000000"
     borderopacity="0.25"
     inkscape:showpageshadow="2"
     inkscape:pageopacity="0.0"
     inkscape:pagecheckerboard="0"
     inkscape:deskcolor="#d1d1d1"
     inkscape:zoom="9.9166667"
     inkscape:cx="23.94958"
     inkscape:cy="24"
     inkscape:window-width="1366"
     inkscape:window-height="673"
     inkscape:window-x="0"
     inkscape:window-y="0"
     inkscape:window-maximized="1"
     inkscape:current-layer="svg1" />
  <path
     d="M168.001-134.001v-391.461l-73.615 56-34.153-46.076L480-835.998l420.767 320.075-35.153 46.461-73.615-57v392.461H168.001Zm58.384-58.384h507.23v-378.538L480-763.076 226.385-570.244v377.859Zm0 0h507.23-507.23ZM322.5-361.616q-15.192 0-26.538-11.539t-11.346-27.038q0-15.499 11.483-26.845 11.484-11.346 26.901-11.346 14.692 0 26.538 11.539t11.846 27.038q0 15.499-11.846 26.845-11.846 11.346-27.038 11.346Zm157 0q-15.192 0-26.538-11.539t-11.346-27.038q0-15.499 11.483-26.845 11.484-11.346 26.901-11.346 14.692 0 26.538 11.539t11.846 27.038q0 15.499-11.846 26.845-11.846 11.346-27.038 11.346Zm157 0q-15.192 0-26.538-11.539t-11.346-27.038q0-15.499 11.483-26.845 11.484-11.346 26.901-11.346 14.692 0 26.538 11.539t11.846 27.038q0 15.499-11.846 26.845-11.846 11.346-27.038 11.346Z"
     id="path1"
     style="fill:#2d2d2d;fill-opacity:1" />
</svg>
