<?xml version="1.0" encoding="UTF-8" standalone="no"?>
<svg
   height="48"
   viewBox="0 -960 960 960"
   width="48"
   version="1.1"
   id="svg1"
   sodipodi:docname="delete.svg"
   inkscape:version="1.3 (1:1.3+202307231459+0e150ed6c4)"
   xmlns:inkscape="http://www.inkscape.org/namespaces/inkscape"
   xmlns:sodipodi="http://sodipodi.sourceforge.net/DTD/sodipodi-0.dtd"
   xmlns="http://www.w3.org/2000/svg"
   xmlns:svg="http://www.w3.org/2000/svg">
  <defs
     id="defs1" />
  <sodipodi:namedview
     id="namedview1"
     pagecolor="#ffffff"
     bordercolor="#000000"
     borderopacity="0.25"
     inkscape:showpageshadow="2"
     inkscape:pageopacity="0.0"
     inkscape:pagecheckerboard="0"
     inkscape:deskcolor="#d1d1d1"
     inkscape:zoom="9.9166667"
     inkscape:cx="23.94958"
     inkscape:cy="24"
     inkscape:window-width="1366"
     inkscape:window-height="673"
     inkscape:window-x="0"
     inkscape:window-y="0"
     inkscape:window-maximized="1"
     inkscape:current-layer="svg1" />
  <path
     d="M276.309-124.001q-29.596 0-50.144-20.548-20.548-20.549-20.548-50.145v-549.228h-40.616v-58.384h185.076v-32.077h260.846v32.077h185.076v58.384h-40.616v549.228q0 28.254-21.219 49.473-21.219 21.22-49.473 21.22H276.309ZM697-743.922H264v549.228q0 5.385 3.654 8.847 3.655 3.462 8.655 3.462h408.382q4.616 0 8.462-3.846 3.847-3.847 3.847-8.463v-549.228ZM371.232-267.846h58.383v-392.615h-58.383v392.615Zm161.153 0h58.383v-392.615h-58.383v392.615ZM264-743.922V-182.385-743.922Z"
     id="path1"
     style="fill:#2d2d2d;fill-opacity:1" />
</svg>
