<?xml version="1.0" encoding="UTF-8" standalone="no"?>
<svg
   height="48"
   viewBox="0 -960 960 960"
   width="48"
   version="1.1"
   id="svg1"
   sodipodi:docname="projects.svg"
   inkscape:version="1.3 (1:1.3+202307231459+0e150ed6c4)"
   xmlns:inkscape="http://www.inkscape.org/namespaces/inkscape"
   xmlns:sodipodi="http://sodipodi.sourceforge.net/DTD/sodipodi-0.dtd"
   xmlns="http://www.w3.org/2000/svg"
   xmlns:svg="http://www.w3.org/2000/svg">
  <defs
     id="defs1" />
  <sodipodi:namedview
     id="namedview1"
     pagecolor="#ffffff"
     bordercolor="#000000"
     borderopacity="0.25"
     inkscape:showpageshadow="2"
     inkscape:pageopacity="0.0"
     inkscape:pagecheckerboard="0"
     inkscape:deskcolor="#d1d1d1"
     inkscape:zoom="9.9166667"
     inkscape:cx="23.94958"
     inkscape:cy="24"
     inkscape:window-width="1366"
     inkscape:window-height="673"
     inkscape:window-x="0"
     inkscape:window-y="0"
     inkscape:window-maximized="1"
     inkscape:current-layer="svg1" />
  <path
     d="M768-120 517-371l57-57 251 251-57 57Zm-581 0-57-57 290-290-107-107-23 23-44-44v85l-24 24-122-122 24-24h86l-48-48 131-131q17-17 37-23t44-6q24 0 44 8.5t37 25.5L348-699l48 48-24 24 104 104 122-122q-8-13-12.5-30t-4.5-36q0-53 38.5-91.5T711-841q15 0 25.5 3t17.5 8l-85 85 75 75 85-85q5 8 8.5 19.5T841-709q0 53-38.5 91.5T711-579q-18 0-31-2.5t-24-7.5L187-120Z"
     id="path1"
     style="fill:#2d2d2d;fill-opacity:1" />
</svg>
