<?xml version="1.0" encoding="UTF-8" standalone="no"?>
<!-- Created with Inkscape (http://www.inkscape.org/) -->

<svg
   width="100"
   height="100"
   viewBox="0 0 26.458333 26.458333"
   version="1.1"
   id="svg1"
   sodipodi:docname="fav-icon.svg"
   inkscape:version="1.3 (1:1.3+202307231459+0e150ed6c4)"
   xmlns:inkscape="http://www.inkscape.org/namespaces/inkscape"
   xmlns:sodipodi="http://sodipodi.sourceforge.net/DTD/sodipodi-0.dtd"
   xmlns="http://www.w3.org/2000/svg"
   xmlns:svg="http://www.w3.org/2000/svg">
  <sodipodi:namedview
     id="namedview1"
     pagecolor="#ffffff"
     bordercolor="#000000"
     borderopacity="0.25"
     inkscape:showpageshadow="2"
     inkscape:pageopacity="0.0"
     inkscape:pagecheckerboard="0"
     inkscape:deskcolor="#d1d1d1"
     inkscape:document-units="px"
     inkscape:zoom="4.7773753"
     inkscape:cx="37.572933"
     inkscape:cy="62.168028"
     inkscape:window-width="1366"
     inkscape:window-height="673"
     inkscape:window-x="0"
     inkscape:window-y="0"
     inkscape:window-maximized="1"
     inkscape:current-layer="g4" />
  <defs
     id="defs1">
    <clipPath
       clipPathUnits="userSpaceOnUse"
       id="clipPath39">
      <path
         id="path40"
         style="opacity:1;fill:#ffffff;stroke:#ffffff;stroke-width:0.438757"
         d="M 6.5825443,6.5814493 V 19.877023 H 19.87752 V 6.5814493 Z M 17.481241,14.811796 c 0.01975,0.0059 0.03855,0.01532 0.05679,0.02488 0.01234,0.0065 0.02445,0.01299 0.03673,0.0197 0.01221,0.0067 0.02469,0.013 0.03706,0.01935 0.01506,0.0077 0.03014,0.0155 0.04523,0.02315 0.01601,0.0081 0.03191,0.0161 0.04795,0.02419 0.0184,0.0092 0.03704,0.01841 0.05543,0.02764 0.0194,0.0098 0.03874,0.0196 0.05815,0.02937 0.01977,0.01 0.03939,0.01975 0.05917,0.02972 0.02007,0.01012 0.04014,0.02022 0.06019,0.03041 0.0202,0.0103 0.04035,0.02075 0.06053,0.0311 0.01964,0.01003 0.03949,0.02013 0.05917,0.03006 0.02041,0.01028 0.04083,0.02042 0.06121,0.03075 0.02037,0.01032 0.04052,0.02074 0.06087,0.0311 0.02014,0.01021 0.04042,0.02015 0.06053,0.03041 0.0199,0.01011 0.03963,0.0206 0.05951,0.03075 0.02006,0.01023 0.0402,0.02039 0.06019,0.03075 0.01981,0.01026 0.03943,0.02071 0.05917,0.0311 0.01924,0.01018 0.03857,0.02023 0.05781,0.03041 0.01927,0.01018 0.03859,0.02046 0.05781,0.03075 0.01919,0.01028 0.03832,0.02072 0.05747,0.0311 0.01938,0.01043 0.03852,0.02083 0.05781,0.03144 0.01988,0.0109 0.03976,0.02201 0.05951,0.03317 0.0202,0.01141 0.04015,0.02321 0.06019,0.0349 0.01976,0.01153 0.03979,0.02294 0.05951,0.03455 0.0195,0.01149 0.03901,0.02303 0.05849,0.03455 0.01927,0.01141 0.03853,0.02282 0.05781,0.03421 0.01952,0.01153 0.03902,0.02328 0.05849,0.0349 0.01987,0.01184 0.03941,0.02356 0.05917,0.03559 0.01935,0.01175 0.03882,0.02379 0.05815,0.03559 0.01906,0.01167 0.03805,0.02327 0.05713,0.0349 0.01958,0.01192 0.03936,0.02383 0.05883,0.03594 0.0189,0.01178 0.03758,0.02378 0.05645,0.03559 0.01915,0.01191 0.03812,0.02379 0.05713,0.03594 0.01918,0.01226 0.0384,0.02487 0.05747,0.03732 0.01568,0.01024 0.0313,0.02042 0.04693,0.03075 l -0.248571,0.388038 c -0.0149,-0.0098 -0.02961,-0.0196 -0.04454,-0.02937 -0.01778,-0.01161 -0.03584,-0.02346 -0.05373,-0.0349 -0.01785,-0.0114 -0.03574,-0.02268 -0.05373,-0.03386 -0.01848,-0.01157 -0.03692,-0.02302 -0.05543,-0.03455 -0.01836,-0.01142 -0.03662,-0.02297 -0.05509,-0.03421 -0.01915,-0.01168 -0.03833,-0.02319 -0.05747,-0.0349 -0.01915,-0.01169 -0.03829,-0.02325 -0.05747,-0.0349 -0.0186,-0.01132 -0.03707,-0.02272 -0.05577,-0.03386 -0.01892,-0.01128 -0.03816,-0.02266 -0.05713,-0.03386 -0.01937,-0.01144 -0.03879,-0.02274 -0.05815,-0.03421 -0.01925,-0.01139 -0.0382,-0.02285 -0.05747,-0.03421 -0.01916,-0.0113 -0.03859,-0.02231 -0.05781,-0.03352 -0.01826,-0.01066 -0.03635,-0.02139 -0.05475,-0.03179 -0.01821,-0.0103 -0.03674,-0.0207 -0.05509,-0.03075 -0.01846,-0.01016 -0.03688,-0.02008 -0.05543,-0.03006 -0.01844,-0.01 -0.03694,-0.02015 -0.05543,-0.03006 -0.01854,-0.0099 -0.03683,-0.01955 -0.05543,-0.02937 -0.01898,-0.01004 -0.03815,-0.02002 -0.05713,-0.03006 -0.01891,-0.01 -0.03782,-0.01989 -0.05679,-0.02972 -0.01922,-0.01 -0.03853,-0.01988 -0.05781,-0.02972 -0.01975,-0.0101 -0.03939,-0.02036 -0.05917,-0.03041 -0.02,-0.0102 -0.04016,-0.02025 -0.06019,-0.03041 -0.02014,-0.01024 -0.04004,-0.02055 -0.06019,-0.03075 -0.02014,-0.01021 -0.04035,-0.0206 -0.06053,-0.03075 -0.02051,-0.01035 -0.04108,-0.02065 -0.06155,-0.0311 -0.01971,-0.0101 -0.03943,-0.02034 -0.05917,-0.03041 -0.0196,-0.01 -0.0392,-0.01982 -0.05883,-0.02972 -0.01972,-0.0099 -0.03945,-0.01977 -0.05917,-0.02972 -0.01927,-0.0097 -0.03854,-0.01933 -0.05781,-0.02903 -0.01858,-0.0093 -0.03718,-0.01866 -0.05577,-0.02799 -0.01636,-0.0082 -0.03264,-0.01657 -0.04897,-0.02488 -0.01551,-0.0079 -0.0311,-0.01559 -0.04659,-0.0235 -0.01583,-0.0081 -0.03166,-0.01637 -0.04727,-0.02488 -0.01036,-0.0056 -0.02053,-0.01104 -0.03094,-0.01659 -0.0117,-0.0062 0.01757,0.0076 0.0204,0.0069 z m -7.47175,1.65063 c 0.0012,-0.0022 -2.96e-4,7.78e-4 -0.0092,0.01797 l 1.635944,0.815813 c -0.01238,0.02565 -0.02586,0.05067 -0.03945,0.07567 -0.01457,0.0266 -0.02967,0.05304 -0.04455,0.07947 -0.01956,0.03464 -0.03954,0.06912 -0.05985,0.103316 -0.02031,0.03413 -0.0411,0.06776 -0.06189,0.101588 -0.02037,0.03305 -0.04094,0.06627 -0.06155,0.09917 -0.02173,0.03442 -0.04365,0.06871 -0.06563,0.10297 -0.0225,0.03487 -0.04494,0.06964 -0.06767,0.104352 -0.0242,0.03683 -0.04879,0.07337 -0.07345,0.109881 -0.02235,0.03297 -0.04471,0.06581 -0.06699,0.09882 -0.02272,0.03365 -0.04529,0.06724 -0.06801,0.100896 -0.02323,0.03464 -0.04664,0.06949 -0.07005,0.104007 -0.02444,0.03606 -0.04906,0.07195 -0.07379,0.107808 -0.02353,0.03412 -0.04718,0.06818 -0.07073,0.102278 -0.02435,0.03537 -0.04886,0.07053 -0.07345,0.105735 -0.02504,0.036 -0.05043,0.07172 -0.07583,0.107462 -0.02519,0.0356 -0.05061,0.07109 -0.07617,0.106425 -0.02527,0.0349 -0.05068,0.06962 -0.07617,0.104352 -0.02637,0.03581 -0.05324,0.07154 -0.07991,0.107117 -0.02556,0.03416 -0.05114,0.06823 -0.07685,0.102279 -0.02613,0.03455 -0.05228,0.06887 -0.07855,0.103315 -0.02122,0.02774 -0.04242,0.05549 -0.06359,0.08328 L 8.7713974,18.27304 c 0.02138,-0.02806 0.042839,-0.05629 0.064268,-0.08431 0.024401,-0.03198 0.048499,-0.06397 0.072769,-0.09606 0.024439,-0.03237 0.04915,-0.06462 0.073449,-0.0971 0.022876,-0.03051 0.045707,-0.06122 0.068349,-0.09191 0.023066,-0.03143 0.045816,-0.06275 0.068689,-0.09433 0.022521,-0.03112 0.045146,-0.06227 0.067329,-0.09364 0.022479,-0.03163 0.044837,-0.06351 0.066988,-0.09537 0.022687,-0.03248 0.045544,-0.0648 0.068008,-0.09744 0.023318,-0.03377 0.046413,-0.06746 0.069709,-0.101243 0.02206,-0.03199 0.044167,-0.06423 0.065968,-0.09641 0.022591,-0.0333 0.044898,-0.06645 0.067329,-0.09986 0.022702,-0.03364 0.045641,-0.06726 0.068348,-0.100897 0.022419,-0.03322 0.044833,-0.06635 0.067328,-0.09951 0.019768,-0.02926 0.039411,-0.05861 0.058827,-0.08811 0.019529,-0.02979 0.038801,-0.05993 0.058147,-0.08984 0.018431,-0.02872 0.036825,-0.05755 0.055087,-0.08638 0.017772,-0.02835 0.035474,-0.05652 0.053047,-0.085 0.015934,-0.02592 0.032013,-0.05196 0.047606,-0.07809 0.012941,-0.02177 0.025557,-0.04363 0.038085,-0.06565 0.010498,-0.01864 0.020956,-0.03724 0.031284,-0.05598 0.0021,-0.0039 0.0062,-0.01131 0.0075,-0.01348 z m 5.601857,0.181753 c 0.0094,0.01861 0.01754,0.0376 0.02516,0.05701 0.0042,0.01064 0.0083,0.02154 0.01258,0.03214 0.0043,0.01053 0.0087,0.02103 0.01326,0.03144 0.0037,0.0079 0.0071,0.01579 0.01122,0.0235 0.0016,0.0027 0.0021,0.0029 0.0051,0.0076 0.0068,0.01082 0.01398,0.02147 0.02108,0.03214 0.0119,0.01781 0.02325,0.03578 0.03468,0.0539 0.01061,0.01699 0.02117,0.03405 0.03162,0.05114 0.0091,0.01496 0.01832,0.03004 0.02754,0.04492 0.008,0.01307 0.01613,0.02584 0.02448,0.0387 0.009,0.01375 0.01802,0.02753 0.0272,0.04112 0.01077,0.01582 0.02187,0.03151 0.03264,0.04734 0.01346,0.01976 0.02651,0.03966 0.03945,0.05978 0.01329,0.0206 0.0261,0.04153 0.03876,0.06254 0.01151,0.01906 0.02273,0.03816 0.03401,0.05736 0.01,0.017 0.01982,0.0342 0.02992,0.05114 0.01053,0.01756 0.02111,0.03495 0.03162,0.05252 0.01041,0.01736 0.02082,0.03486 0.03128,0.05218 0.01073,0.01776 0.02149,0.0355 0.0323,0.05321 0.01104,0.01811 0.02222,0.03618 0.03332,0.05425 0.01116,0.01817 0.02245,0.0361 0.03367,0.05425 0.01215,0.01957 0.02406,0.03941 0.03604,0.05909 0.01122,0.0184 0.02269,0.03661 0.034,0.05494 0.01146,0.01853 0.02284,0.03714 0.03434,0.05563 0.01148,0.01841 0.02315,0.0369 0.03468,0.05529 0.01186,0.0189 0.02355,0.03773 0.03536,0.05667 0.01161,0.01862 0.02341,0.03735 0.03503,0.05598 0.01228,0.0198 0.02448,0.0396 0.03672,0.05943 0.01213,0.01971 0.02426,0.03937 0.03638,0.05909 0.01235,0.02002 0.02478,0.04006 0.03706,0.06012 0.01262,0.02068 0.02489,0.04146 0.0374,0.0622 0.01259,0.02086 0.02527,0.04161 0.03775,0.06254 0.01248,0.02083 0.02471,0.04163 0.03706,0.06254 0.01206,0.02035 0.02435,0.0408 0.03638,0.06116 0.01246,0.02097 0.02472,0.04185 0.03706,0.06289 0.0125,0.02122 0.025,0.04265 0.0374,0.06393 0.01267,0.02151 0.02529,0.04296 0.03774,0.06461 0.0119,0.02071 0.02377,0.0415 0.0357,0.0622 0.0126,0.02172 0.02499,0.04348 0.0374,0.06531 0.01188,0.02088 0.02382,0.04202 0.0357,0.06289 0.0121,0.0211 0.02404,0.04208 0.03605,0.06323 0.0083,0.01469 0.0042,0.0073 0.01258,0.02211 l -0.790598,0.460255 c -0.0074,-0.01312 -0.0037,-0.0065 -0.01122,-0.0197 -0.01181,-0.02079 -0.0238,-0.0418 -0.03571,-0.06254 -0.01198,-0.02104 -0.02373,-0.04184 -0.0357,-0.06289 -0.01146,-0.02015 -0.02304,-0.04042 -0.03468,-0.06047 -0.01215,-0.02107 -0.02428,-0.04214 -0.03638,-0.06323 -0.01149,-0.01999 -0.02299,-0.03991 -0.03468,-0.05978 -0.01192,-0.02045 -0.0237,-0.04077 -0.03571,-0.06116 -0.01184,-0.02018 -0.0241,-0.04036 -0.03604,-0.06047 -0.01216,-0.02055 -0.02421,-0.0413 -0.03639,-0.06185 -0.01171,-0.01983 -0.02353,-0.03968 -0.03536,-0.05943 -0.01157,-0.01941 -0.02303,-0.0387 -0.03468,-0.05805 -0.01152,-0.01907 -0.02308,-0.038 -0.03468,-0.05701 -0.01194,-0.01949 -0.02371,-0.03895 -0.0357,-0.0584 -0.01194,-0.01941 -0.0241,-0.03899 -0.03604,-0.0584 -0.01161,-0.0188 -0.02304,-0.03755 -0.03468,-0.05632 -0.01148,-0.01845 -0.02318,-0.03684 -0.03468,-0.05529 -0.01138,-0.01825 -0.02291,-0.03671 -0.03434,-0.05494 -0.01203,-0.01918 -0.02407,-0.03814 -0.03604,-0.05736 -0.01219,-0.01957 -0.02426,-0.03913 -0.03639,-0.05874 -0.01227,-0.01989 -0.02456,-0.03982 -0.03672,-0.05978 -0.01095,-0.01798 -0.02188,-0.03602 -0.03298,-0.0539 -0.01167,-0.0189 -0.0234,-0.03775 -0.03503,-0.05667 -0.01154,-0.01878 -0.02321,-0.0375 -0.03468,-0.05632 -0.01148,-0.01881 -0.02295,-0.03781 -0.03434,-0.05667 -0.0112,-0.01852 -0.02219,-0.03707 -0.03332,-0.05563 -0.01073,-0.01792 -0.02157,-0.03565 -0.0323,-0.05356 -0.01116,-0.0187 -0.0223,-0.03755 -0.03332,-0.05632 -0.0096,-0.01633 -0.01911,-0.0325 -0.0289,-0.04872 -0.008,-0.01335 -0.01603,-0.02665 -0.02448,-0.03974 -0.0085,-0.01325 -0.017,-0.02672 -0.02584,-0.03974 -0.01137,-0.01672 -0.02299,-0.03338 -0.03434,-0.0501 -0.01234,-0.01828 -0.0247,-0.03644 -0.03672,-0.05494 -0.0118,-0.01819 -0.02332,-0.03647 -0.03468,-0.05494 -0.01025,-0.01653 -0.0205,-0.03314 -0.0306,-0.04976 -0.0083,-0.01359 -0.01645,-0.02722 -0.02482,-0.04077 -0.0072,-0.01142 -0.0146,-0.02266 -0.0221,-0.03386 -0.01221,-0.01832 -0.02437,-0.0366 -0.03604,-0.05529 -0.01648,-0.02653 -0.03227,-0.05356 -0.04625,-0.08155 -0.0112,-0.02238 -0.02224,-0.0448 -0.0323,-0.06772 -0.0083,-0.01896 -0.01635,-0.03816 -0.02414,-0.05736 -0.0055,-0.01369 -0.01093,-0.02736 -0.01632,-0.04112 -0.0035,-0.009 0.0095,0.02075 0.0099,0.02108 z" />
    </clipPath>
  </defs>
  <g
     inkscape:label="Layer 1"
     inkscape:groupmode="layer"
     id="layer1">
    <g
       id="g4"
       transform="matrix(1.5197058,0,0,1.4955396,-6.6962391,-4.5702718)">
      <path
         style="opacity:1;fill:none;stroke:#ff3c00;stroke-width:1.85208"
         d="m 18.951453,13.229168 a 5.7222848,5.7222843 0 0 1 -4.032505,5.4671 A 5.7222848,5.7222843 0 0 1 8.5048611,16.458017 5.7222848,5.7222843 0 0 1 8.7492296,9.6690144 5.7222848,5.7222843 0 0 1 15.30764,7.8977053"
         id="path1"
         clip-path="url(#clipPath39)" />
      <path
         style="opacity:1;fill:none;stroke:#32f032;stroke-width:0.661458;stroke-dasharray:none;stroke-opacity:1"
         d="M 12.873785,17.749708 9.1038769,12.926227 12.435958,9.2027491 18.55876,12.653352 17.820563,5.3040301"
         id="path3"
         sodipodi:nodetypes="ccccc" />
      <path
         style="opacity:1;fill:#00ff00;fill-opacity:1;stroke:#32f032;stroke-width:0.661458;stroke-dasharray:none;stroke-opacity:1"
         d="M 17.790929,4.6982202 17.20419,6.1755927 18.668468,5.9707898 Z"
         id="path4" />
    </g>
  </g>
</svg>
