<svg id="visual" viewBox="0 0 900 600" width="900" height="600" xmlns="http://www.w3.org/2000/svg" xmlns:xlink="http://www.w3.org/1999/xlink" version="1.1"><path d="M0 25L37.5 39C75 53 150 81 225 88C300 95 375 81 450 64C525 47 600 27 675 43C750 59 825 111 862.5 137L900 163L900 0L862.5 0C825 0 750 0 675 0C600 0 525 0 450 0C375 0 300 0 225 0C150 0 75 0 37.5 0L0 0Z" fill="#45b8ff"></path><path d="M0 73L37.5 90C75 107 150 141 225 146C300 151 375 127 450 99C525 71 600 39 675 50C750 61 825 115 862.5 142L900 169L900 161L862.5 135C825 109 750 57 675 41C600 25 525 45 450 62C375 79 300 93 225 86C150 79 75 51 37.5 37L0 23Z" fill="#3eb3ff"></path><path d="M0 199L37.5 212C75 225 150 251 225 250C300 249 375 221 450 191C525 161 600 129 675 150C750 171 825 245 862.5 282L900 319L900 167L862.5 140C825 113 750 59 675 48C600 37 525 69 450 97C375 125 300 149 225 144C150 139 75 105 37.5 88L0 71Z" fill="#39aeff"></path><path d="M0 241L37.5 247C75 253 150 265 225 261C300 257 375 237 450 207C525 177 600 137 675 154C750 171 825 245 862.5 282L900 319L900 317L862.5 280C825 243 750 169 675 148C600 127 525 159 450 189C375 219 300 247 225 248C150 249 75 223 37.5 210L0 197Z" fill="#35a9ff"></path><path d="M0 241L37.5 250C75 259 150 277 225 276C300 275 375 255 450 228C525 201 600 167 675 190C750 213 825 293 862.5 333L900 373L900 317L862.5 280C825 243 750 169 675 152C600 135 525 175 450 205C375 235 300 255 225 259C150 263 75 251 37.5 245L0 239Z" fill="#34a3ff"></path><path d="M0 241L37.5 253C75 265 150 289 225 295C300 301 375 289 450 264C525 239 600 201 675 223C750 245 825 327 862.5 368L900 409L900 371L862.5 331C825 291 750 211 675 188C600 165 525 199 450 226C375 253 300 273 225 274C150 275 75 257 37.5 248L0 239Z" fill="#359eff"></path><path d="M0 247L37.5 265C75 283 150 319 225 331C300 343 375 331 450 306C525 281 600 243 675 266C750 289 825 373 862.5 415L900 457L900 407L862.5 366C825 325 750 243 675 221C600 199 525 237 450 262C375 287 300 299 225 293C150 287 75 263 37.5 251L0 239Z" fill="#3998ff"></path><path d="M0 295L37.5 308C75 321 150 347 225 355C300 363 375 353 450 333C525 313 600 283 675 310C750 337 825 421 862.5 463L900 505L900 455L862.5 413C825 371 750 287 675 264C600 241 525 279 450 304C375 329 300 341 225 329C150 317 75 281 37.5 263L0 245Z" fill="#4092ff"></path><path d="M0 325L37.5 341C75 357 150 389 225 402C300 415 375 409 450 389C525 369 600 335 675 356C750 377 825 453 862.5 491L900 529L900 503L862.5 461C825 419 750 335 675 308C600 281 525 311 450 331C375 351 300 361 225 353C150 345 75 319 37.5 306L0 293Z" fill="#498cff"></path><path d="M0 409L37.5 423C75 437 150 465 225 476C300 487 375 481 450 456C525 431 600 387 675 398C750 409 825 475 862.5 508L900 541L900 527L862.5 489C825 451 750 375 675 354C600 333 525 367 450 387C375 407 300 413 225 400C150 387 75 355 37.5 339L0 323Z" fill="#5485ff"></path><path d="M0 493L37.5 501C75 509 150 525 225 534C300 543 375 545 450 519C525 493 600 439 675 442C750 445 825 505 862.5 535L900 565L900 539L862.5 506C825 473 750 407 675 396C600 385 525 429 450 454C375 479 300 485 225 474C150 463 75 435 37.5 421L0 407Z" fill="#607eff"></path><path d="M0 601L37.5 601C75 601 150 601 225 601C300 601 375 601 450 601C525 601 600 601 675 601C750 601 825 601 862.5 601L900 601L900 563L862.5 533C825 503 750 443 675 440C600 437 525 491 450 517C375 543 300 541 225 532C150 523 75 507 37.5 499L0 491Z" fill="#6c76ff"></path></svg>